<svg width="24" height="14" viewBox="0 0 24 14" fill="none" xmlns="http://www.w3.org/2000/svg">
<g clip-path="url(#clip0_3_210)">
<mask id="mask0_3_210" style="mask-type:luminance" maskUnits="userSpaceOnUse" x="0" y="0" width="24" height="14">
<path d="M0.0722656 0.0873413H23.8251V13.93H0.0722656V0.0873413Z" fill="white"/>
</mask>
<g mask="url(#mask0_3_210)">
<path d="M23.7569 13.4061C23.7495 13.3574 23.7418 13.3092 23.7338 13.2614C23.5283 12.0213 23.1277 10.8215 22.5468 9.70679C22.2908 9.21576 22.0011 8.74299 21.6799 8.29185C21.2879 7.7415 20.85 7.22538 20.3708 6.74902C19.7334 6.11437 19.0264 5.55366 18.2633 5.07751C18.2677 5.06975 18.2721 5.06199 18.2767 5.05423C18.5164 4.64021 18.7561 4.22613 18.9958 3.812L19.699 2.59888C19.8674 2.30853 20.0357 2.01804 20.2036 1.72742C20.2435 1.65842 20.2751 1.58737 20.2986 1.51427C20.3462 1.36606 20.3616 1.20941 20.344 1.05476C20.3263 0.900103 20.2759 0.750988 20.1961 0.61733C20.1033 0.462018 19.9732 0.33235 19.8176 0.240117C19.6758 0.156168 19.517 0.105101 19.3529 0.0906786C19.2274 0.0800213 19.101 0.0909818 18.9792 0.123083C18.8406 0.159876 18.7106 0.223652 18.5967 0.310757C18.4828 0.397863 18.3872 0.506587 18.3154 0.630701C18.1469 0.921188 17.9787 1.21167 17.8107 1.50216L17.1076 2.71529C16.868 3.12962 16.6278 3.54317 16.3882 3.95751C16.362 4.0026 16.3358 4.04796 16.3096 4.09358C16.2731 4.07911 16.2372 4.06463 16.2007 4.05079C14.8797 3.54663 13.4462 3.27088 11.9479 3.27088C11.907 3.27078 11.8661 3.27099 11.8252 3.27151C10.5289 3.28326 9.24332 3.50658 8.01906 3.93266C7.88095 3.9809 7.7442 4.03165 7.60881 4.08493C7.58427 4.04256 7.55979 4.0003 7.53535 3.95814C7.29562 3.54391 7.05584 3.12983 6.816 2.71591L6.11286 1.50263C5.94444 1.21227 5.77623 0.921783 5.60823 0.631173C5.50445 0.451905 5.35173 0.305917 5.16798 0.210305C4.98422 0.114694 4.77703 0.0734167 4.57066 0.0913078C4.40643 0.105195 4.24752 0.156299 4.10598 0.240746C3.86052 0.386566 3.68217 0.622987 3.60938 0.899061C3.53508 1.17914 3.57485 1.47724 3.71996 1.72805L4.22459 2.59951L4.92774 3.81279C5.16731 4.22713 5.40751 4.64068 5.64708 5.05502C5.64866 5.05848 5.65102 5.06194 5.65275 5.0654C4.88204 5.54476 4.1682 6.11 3.5249 6.75027C3.04601 7.22689 2.6081 7.74299 2.21582 8.29311C1.89423 8.74394 1.60461 9.21675 1.34908 9.70805C0.76828 10.8228 0.367649 12.0225 0.162072 13.2626C0.125335 13.4844 0.0948589 13.7072 0.0706787 13.9307H23.8235C23.8045 13.7558 23.7818 13.5813 23.7552 13.4074L23.7569 13.4061Z" fill="black"/>
<path d="M18.1254 10.6436C18.6008 10.3272 18.6698 9.59475 18.2797 9.00769C17.8896 8.42095 17.1882 8.20182 16.713 8.51848C16.2378 8.83497 16.1687 9.56737 16.5588 10.1544C16.9488 10.7412 17.6502 10.9603 18.1254 10.6436ZM7.35596 10.1562C7.74607 9.56942 7.67686 8.83686 7.2018 8.52021C6.72643 8.20371 6.02502 8.42284 5.63506 9.00973C5.24511 9.59663 5.314 10.329 5.78922 10.6457C6.26443 10.9623 6.96585 10.7432 7.35596 10.1562Z" fill="white"/>
</g>
</g>
<defs>
<clipPath id="clip0_3_210">
<rect width="23.9101" height="14" fill="white"/>
</clipPath>
</defs>
</svg>
