<svg width="24" height="24" viewBox="0 0 24 24" fill="none" xmlns="http://www.w3.org/2000/svg">
<path d="M12.2227 6.25C13.0547 6.25 14.0977 5.65496 14.7188 4.86157C15.2813 4.14256 15.6914 3.13843 15.6914 2.1343C15.6914 1.99793 15.6797 1.86157 15.6563 1.75C14.7305 1.78719 13.6172 2.40702 12.9492 3.2376C12.4219 3.86983 11.9414 4.86157 11.9414 5.8781C11.9414 6.02686 11.9648 6.17562 11.9766 6.22521C12.0352 6.2376 12.1289 6.25 12.2227 6.25ZM9.29297 21.25C10.4297 21.25 10.9336 20.4442 12.3516 20.4442C13.793 20.4442 14.1094 21.2252 15.375 21.2252C16.6172 21.2252 17.4492 20.0103 18.2344 18.8202C19.1133 17.4566 19.4766 16.1178 19.5 16.0558C19.418 16.031 17.0391 15.0021 17.0391 12.1136C17.0391 9.6095 18.9141 8.4814 19.0195 8.39463C17.7773 6.51033 15.8906 6.46074 15.375 6.46074C13.9805 6.46074 12.8438 7.35331 12.1289 7.35331C11.3555 7.35331 10.3359 6.51033 9.12891 6.51033C6.83203 6.51033 4.5 8.51859 4.5 12.312C4.5 14.6674 5.36719 17.1591 6.43359 18.7707C7.34766 20.1343 8.14453 21.25 9.29297 21.25Z" fill="black"/>
</svg>
