<svg width="102" height="50" viewBox="0 0 102 50" fill="none" xmlns="http://www.w3.org/2000/svg">
<path fill-rule="evenodd" clip-rule="evenodd" d="M13.995 14.9249C13.995 16.5361 14.6764 17.2711 16.5952 17.7289L16.5916 17.7325L19.1041 18.3405C22.8005 19.2489 24.451 21.0658 24.451 24.2257C24.451 28.4549 21.5719 30.8798 16.9028 30.8798C12.2336 30.8798 9.58158 28.7393 9.23108 24.6817H13.2726C13.5301 26.7185 14.8051 27.7522 16.9028 27.7522C19.0004 27.7522 20.3577 26.6166 20.3577 24.8605C20.3577 23.2046 19.519 22.3713 17.3731 21.8902L14.8355 21.309C12.5823 20.7708 9.89989 19.3115 9.89989 15.3952C9.89989 11.6953 12.7361 9.20959 16.9582 9.20959C21.5004 9.20959 23.852 11.014 24.1435 14.7193H19.9357C19.7354 13.0812 18.7429 12.2818 16.9045 12.2818C15.1914 12.2818 13.995 13.3119 13.995 14.9213V14.9249ZM73.0651 20.1878C72.7647 18.6534 71.7722 17.9381 69.9553 17.9381H69.6925C67.3069 17.9381 65.7618 19.8212 65.7618 22.7307C65.7618 25.6402 67.3033 27.5233 69.6925 27.5233H69.9553C71.7722 27.5233 72.7611 26.808 73.0651 25.2736H77.0369C76.6703 28.8895 74.1148 30.8745 69.8248 30.8745C65.2808 30.8745 62.1066 27.525 62.1066 22.7307C62.1066 17.9363 65.279 14.5869 69.8248 14.5869C74.1148 14.5869 76.6703 16.5755 77.0369 20.1878H73.0651ZM57.3337 25.5526V17.838H61.5415V14.5672H58.8073C57.9936 14.5672 57.3302 13.911 57.3302 13.1044V9.21138H53.3244V14.5708H49.9911C48.5855 14.5708 47.3212 15.4131 46.7704 16.7167L43.3065 24.9249L39.6138 16.6506C39.0505 15.3845 37.7969 14.5672 36.4217 14.5672H31.6256C30.8101 14.5672 30.1485 13.911 30.1485 13.1044V9.21138H26.1427V26.715C26.1427 29.4367 27.5805 30.878 30.3005 30.878H34.1059V27.5304H32.1227C30.5544 27.5304 30.1485 27.1245 30.1485 25.5526V17.838H35.0322C35.4829 17.838 35.8155 18.0222 35.9746 18.353L41.3645 29.7139V30.549C41.3645 32.1513 40.9228 32.221 39.3902 32.221H34.3581V35.6295H41.0122C43.5766 35.6295 45.1699 33.8037 45.1699 30.8673L45.1842 29.5208L50.3523 18.3637C50.5097 18.024 50.8459 17.8398 51.3001 17.8398H53.3226V26.7132C53.3226 29.4349 54.7604 30.8763 57.4804 30.8763H61.4003V27.5286H59.3026C57.7343 27.5286 57.3284 27.1227 57.3284 25.5508L57.3337 25.5544V25.5526ZM82.686 16.7239L82.9561 16.3931H82.9525C83.8877 15.2522 84.8391 14.5887 86.9493 14.5887C90.5169 14.5887 92.5662 16.8294 92.5662 20.7404V30.8763H88.5605V21.2393C88.5605 20.0286 88.2154 19.0647 87.5608 18.4514C87.0333 17.9542 86.3251 17.7218 85.5133 17.77C83.5837 17.8916 82.686 19.3902 82.686 22.4929V30.8763H78.6803V9.21138H82.686V16.7239Z" fill="#000D25"/>
<path d="M62.5018 40.1502V40.9067H61.4503V35.1002H62.5233V37.6878C62.8094 37.1442 63.2583 36.7615 63.8752 36.7615C64.7568 36.7615 65.3452 37.5411 65.3452 38.8269V38.9306C65.3452 40.2683 64.646 41.0104 63.8377 41.0104C63.2279 41.0104 62.7862 40.7243 62.5 40.1502H62.5018ZM64.2507 38.902V38.8502C64.2507 38.0115 63.8985 37.5787 63.3906 37.5787C62.8541 37.5787 62.4786 38.0276 62.4786 38.8502V38.902C62.4786 39.7693 62.8166 40.1878 63.3834 40.1878C63.9128 40.1878 64.2507 39.7765 64.2507 38.902Z" fill="#000D25"/>
<path d="M66.0605 42.3713V41.6148C66.1857 41.6595 66.377 41.6953 66.5684 41.6953C67.0601 41.6953 67.3337 41.4968 67.509 40.8798L67.5304 40.828H66.9797L65.7368 36.8652H66.8759L67.788 40.0769L68.6767 36.8652H69.7944L68.4264 41.0926C68.0884 42.196 67.5376 42.4821 66.7937 42.4821C66.5004 42.4821 66.25 42.4374 66.0587 42.3713H66.0605Z" fill="#000D25"/>
<path d="M72.897 36.5343H71.3895V35.6152H75.5133V36.5343H73.9915V40.9084H72.897V36.5343Z" fill="#000D25"/>
<path d="M75.4185 36.858H76.529L77.1763 40.0626L77.9185 36.8652H79.1613L79.9267 40.0107L80.574 36.858H81.6685L80.6974 40.9084H79.2561L78.5211 37.829L77.8076 40.9084H76.3662L75.4185 36.858Z" fill="#000D25"/>
<path d="M82.2711 35.6223C82.2711 35.2325 82.4768 35.0858 82.8952 35.0858C83.3137 35.0858 83.5283 35.2396 83.5283 35.6223C83.5283 36.005 83.3441 36.166 82.8952 36.166C82.4464 36.166 82.2711 36.0336 82.2711 35.6223ZM82.3587 36.858H83.4317V40.9084H82.3587V36.858Z" fill="#000D25"/>
<path d="M84.4833 35.1002H85.5562V40.9067H84.4833V35.1002Z" fill="#000D25"/>
<path d="M86.52 35.6223C86.52 35.2325 86.7257 35.0858 87.1441 35.0858C87.5626 35.0858 87.7772 35.2396 87.7772 35.6223C87.7772 36.005 87.593 36.166 87.1441 36.166C86.6953 36.166 86.52 36.0336 86.52 35.6223ZM86.6076 36.858H87.6806V40.9084H86.6076V36.858Z" fill="#000D25"/>
<path d="M88.5193 38.9306V38.8269C88.5193 37.5698 89.358 36.7543 90.5329 36.7543C91.7078 36.7543 92.525 37.5626 92.525 38.8269V38.9306C92.525 40.2164 91.6935 41.0104 90.5186 41.0104C89.2829 41.0104 88.5193 40.2164 88.5193 38.9306ZM91.4306 38.902V38.8502C91.4306 37.9972 91.0711 37.5644 90.5347 37.5644C89.9982 37.5644 89.6155 37.9828 89.6155 38.8502V38.902C89.6155 39.7693 89.9535 40.1878 90.5347 40.1878C91.0783 40.1878 91.4306 39.7836 91.4306 38.902Z" fill="#000D25"/>
</svg>
